<svg xmlns="http://www.w3.org/2000/svg" viewBox="0 0 32 32" width="64" height="64"><path fill="#25D366" d="M16 3C9.372 3 4 8.372 4 15c0 2.646.83 5.096 2.27 7.146L4 29l6.134-2.018C12.005 27.327 14 28 16 28c6.628 0 12-5.372 12-12S22.628 3 16 3z"/><path fill="#FFF" d="M22.2 19.7c-.3-.15-1.73-.86-2-.96-.27-.1-.47-.15-.67.15-.2.3-.76.96-.93 1.16-.17.2-.33.22-.62.07-1.73-.86-2.86-1.56-4.02-3.36-.3-.46.3-.43.88-1.44.1-.23.05-.44-.03-.61-.09-.17-.67-1.6-.92-2.2-.24-.58-.48-.5-.66-.5-.17 0-.37 0-.56 0-.19 0-.5.07-.76.36-.28.33-1.07 1.04-1.07 2.54 0 1.5 1.1 2.95 1.25 3.15.15.2 2.16 3.5 5.23 4.9 3.06 1.4 3.06.94 3.61.88.55-.07 1.73-.7 1.98-1.38.25-.68.25-1.26.17-1.38-.08-.12-.28-.18-.58-.33z"/></svg>